<svg width="32" height="32" viewBox="0 0 32 32" fill="none" xmlns="http://www.w3.org/2000/svg">
<path d="M4.1579 9.57892V6.94734C4.1579 6.24941 4.43515 5.58005 4.92867 5.08654C5.42219 4.59302 6.09154 4.31577 6.78948 4.31577H9.42106" stroke="white" stroke-width="2" stroke-linecap="round" stroke-linejoin="round"/>
<path d="M22.5789 4.31577H25.2105C25.9084 4.31577 26.5778 4.59302 27.0713 5.08654C27.5648 5.58005 27.8421 6.24941 27.8421 6.94734V9.57892" stroke="white" stroke-width="2" stroke-linecap="round" stroke-linejoin="round"/>
<path d="M27.8421 22.7368V25.3684C27.8421 26.0663 27.5648 26.7357 27.0713 27.2292C26.5778 27.7227 25.9084 28 25.2105 28H22.5789" stroke="white" stroke-width="2" stroke-linecap="round" stroke-linejoin="round"/>
<path d="M9.42106 28H6.78948C6.09154 28 5.42219 27.7227 4.92867 27.2292C4.43515 26.7357 4.1579 26.0663 4.1579 25.3684V22.7368" stroke="white" stroke-width="2" stroke-linecap="round" stroke-linejoin="round"/>
<path d="M9.42102 16.1579H22.5789" stroke="white" stroke-width="2" stroke-linecap="round" stroke-linejoin="round"/>
</svg>
